<svg xmlns="http://www.w3.org/2000/svg" width="532.002" height="507.339" viewBox="0 0 532.002 507.339">
  <g id="arrows" transform="translate(-9101.001 -1771)">
    <path id="패스_314" data-name="패스 314" d="M505.755,123.592a21.31,21.31,0,0,0-30.165,0L256.005,343.176,36.421,123.592A21.33,21.33,0,1,0,6.256,153.757L240.923,388.424a21.322,21.322,0,0,0,30.166,0L505.756,153.757a21.311,21.311,0,0,0,0-30.164Z" transform="translate(9110.992 1873.664)" fill="#1e1e1e" stroke="#1e1e1e" stroke-width="20"/>
    <path id="패스_314-2" data-name="패스 314" d="M505.755,123.592a21.31,21.31,0,0,0-30.165,0L256.005,343.176,36.421,123.592A21.33,21.33,0,1,0,6.256,153.757L240.923,388.424a21.322,21.322,0,0,0,30.166,0L505.756,153.757a21.311,21.311,0,0,0,0-30.164Z" transform="translate(9110.992 1663.664)" fill="#1e1e1e" stroke="#1e1e1e" stroke-width="20"/>
  </g>
</svg>
