<svg xmlns="http://www.w3.org/2000/svg" width="532.01" height="507.338" viewBox="0 0 532.01 507.338">
  <g id="arrows" transform="translate(-5986 -5246)">
    <g id="down-arrow" transform="translate(5996 5348.664)">
      <g id="그룹_17" data-name="그룹 17">
        <path id="패스_314" data-name="패스 314" d="M505.755,123.592a21.31,21.31,0,0,0-30.165,0L256.005,343.176,36.421,123.592A21.33,21.33,0,1,0,6.256,153.757L240.923,388.424a21.322,21.322,0,0,0,30.166,0L505.756,153.757A21.311,21.311,0,0,0,505.755,123.592Z" fill="#1e1e1e" stroke="#1e1e1e" stroke-width="20"/>
      </g>
    </g>
    <g id="down-arrow-2" data-name="down-arrow" transform="translate(5996 5138.664)">
      <g id="그룹_17-2" data-name="그룹 17">
        <path id="패스_314-2" data-name="패스 314" d="M505.755,123.592a21.31,21.31,0,0,0-30.165,0L256.005,343.176,36.421,123.592A21.33,21.33,0,1,0,6.256,153.757L240.923,388.424a21.322,21.322,0,0,0,30.166,0L505.756,153.757A21.311,21.311,0,0,0,505.755,123.592Z" fill="#1e1e1e" stroke="#1e1e1e" stroke-width="20"/>
      </g>
    </g>
  </g>
</svg>
