<svg xmlns="http://www.w3.org/2000/svg" width="600.983" height="599.609" viewBox="0 0 600.983 599.609">
  <g id="bulb" transform="translate(-5834.869 3253.177)">
    <path id="background" d="M214.685.186C140.482,2.745,4.707,115.1.137,210.64S106.113,453.262,220.129,462.631s160.638-63.279,222.239-136.389S429.8,193.006,385.726,106.924,288.885-2.373,214.685.186Z" transform="translate(5834.869 -3086.235) rotate(-21)" fill="rgba(132,132,132,0.12)"/>
    <g id="그룹_48" data-name="그룹 48" transform="translate(5966.414 -3184.092)">
      <g id="합치기_1" data-name="합치기 1" transform="matrix(0.951, -0.309, 0.309, 0.951, 0, 94.323)" fill="#fff" stroke-linecap="round" stroke-linejoin="round">
        <path d="M 202.5197143554688 403.717041015625 L 200.1480865478516 403.717041015625 L 106.0063934326172 403.717041015625 L 103.646240234375 403.717041015625 L 102.5050811767578 401.651123046875 L 27.53683471679688 265.9345092773438 C 17.5205078125 251.6570434570313 9.728242874145508 235.87060546875 4.374712467193604 219.0096130371094 C -1.182340383529663 201.5077667236328 -3.999971866607666 183.1702423095703 -3.999971866607666 164.50634765625 C -3.999971866607666 153.0950317382813 -2.933129787445068 141.689453125 -0.8291298151016235 130.6064453125 C 1.222238540649414 119.8005599975586 4.283554553985596 109.1705551147461 8.269817352294922 99.01181793212891 C 12.1851863861084 89.03376770019531 17.03186988830566 79.40898132324219 22.67529106140137 70.40487670898438 C 28.26786994934082 61.48187255859375 34.69165802001953 53.08992767333984 41.76813507080078 45.46218872070313 C 48.84955596923828 37.82913589477539 56.64323806762695 30.89808464050293 64.93281555175781 24.86155700683594 C 73.30876159667969 18.7620849609375 82.26486968994141 13.52239990234375 91.55245208740234 9.28813648223877 C 101.0181884765625 4.97255802154541 110.9251861572266 1.657873630523682 120.9981307983398 -0.5639157891273499 C 131.3350830078125 -2.843915700912476 141.9733428955078 -3.999968528747559 152.6175537109375 -3.999968528747559 C 163.2616119384766 -3.999968528747559 173.8998107910156 -2.843915700912476 184.2366638183594 -0.5639157891273499 C 194.3095550537109 1.657873630523682 204.2164459228516 4.97255802154541 213.68212890625 9.28813648223877 C 222.9696044921875 13.52239990234375 231.9257049560547 18.7620849609375 240.3016052246094 24.86155700683594 C 248.5911407470703 30.89808464050293 256.3848266601563 37.82918930053711 263.4661865234375 45.46218872070313 C 270.5426635742188 53.0899772644043 276.9664001464844 61.48187255859375 282.5589294433594 70.40487670898438 C 288.2023315429688 79.40898132324219 293.049072265625 89.03376770019531 296.9643859863281 99.01181793212891 C 300.9506530761719 109.1705551147461 304.011962890625 119.8005599975586 306.0633544921875 130.6064453125 C 308.1673583984375 141.6894989013672 309.2341918945313 153.0950317382813 309.2341918945313 164.50634765625 C 309.2341918945313 182.9225616455078 306.4900817871094 201.0279846191406 301.078125 218.3196105957031 C 295.8626403808594 234.9833679199219 288.2636108398438 250.618408203125 278.4891357421875 264.7961730957031 L 203.6576080322266 401.63623046875 L 202.5197143554688 403.717041015625 Z" stroke="none"/>
        <path d="M 200.1480865478516 399.717041015625 L 275.0792541503906 262.6947326660156 C 294.0232543945313 235.2889099121094 305.234130859375 201.3102722167969 305.234130859375 164.5063323974609 C 305.234130859375 73.65167999267578 236.9053192138672 3.466078851488419e-05 152.6175537109375 3.466078851488419e-05 C 68.32890319824219 3.466078851488419e-05 2.186494748457335e-05 73.65167999267578 2.186494748457335e-05 164.5063323974609 C 2.186494748457335e-05 201.8093872070313 11.52102184295654 236.2155609130859 30.93384552001953 263.8116149902344 L 106.0064315795898 399.717041015625 L 200.1480865478516 399.717041015625 M 200.1480865478516 407.717041015625 L 106.0064315795898 407.717041015625 C 103.0941390991211 407.717041015625 100.4119644165039 406.1344604492188 99.0037841796875 403.585205078125 L 23.93119812011719 267.6798095703125 C 3.200492382049561 238.2919769287109 -7.999978065490723 202.3610992431641 -7.999978065490723 164.5063323974609 C -7.999978065490723 69.38603210449219 64.05272674560547 -7.999965190887451 152.6175537109375 -7.999965190887451 C 241.1818389892578 -7.999965190887451 313.234130859375 69.38603210449219 313.234130859375 164.5063323974609 C 313.234130859375 201.8352661132813 302.3160095214844 237.3612670898438 281.6600952148438 267.2436828613281 L 207.1671447753906 403.5554504394531 C 205.7639617919922 406.1212768554688 203.0725555419922 407.717041015625 200.1480865478516 407.717041015625 Z" stroke="none" fill="#1e1e1e"/>
      </g>
      <g id="패스_345" data-name="패스 345" transform="matrix(0.951, -0.309, 0.309, 0.951, 185.835, 411.817)" fill="#fff" stroke-linecap="round" stroke-linejoin="round">
        <path d="M 131.2560577392578 84.67060852050781 L 128.1212310791016 84.67060852050781 L 20.6641845703125 84.67060852050781 L 17.55966186523438 84.67060852050781 L 16.78929328918457 81.66316986083984 L -3.874880790710449 0.9925613403320313 L -5.153750419616699 -4.000003814697266 L 1.054581389325904e-05 -4.000003814697266 L 147.9773406982422 -4.000003814697266 L 153.0812683105469 -4.000003814697266 L 151.8614044189453 0.9560178518295288 L 132.0052947998047 81.62662506103516 L 131.2560577392578 84.67060852050781 Z" stroke="none"/>
        <path d="M 0 7.62939453125e-06 L 20.66419219970703 80.67059326171875 L 128.1212463378906 80.67059326171875 L 147.9773254394531 7.62939453125e-06 L 0 7.62939453125e-06 M 0 -7.999992370605469 L 147.9773254394531 -7.999992370605469 C 150.4356842041016 -7.999992370605469 152.7575531005859 -6.869697570800781 154.2740020751953 -4.93475341796875 C 155.7904205322266 -2.999801635742188 156.3330383300781 -0.475067138671875 155.7454833984375 1.912040710449219 L 135.889404296875 82.58261871337891 C 135.0094299316406 86.15772247314453 131.8030395507813 88.67059326171875 128.1212463378906 88.67059326171875 L 20.66419219970703 88.67059326171875 C 17.010498046875 88.67059326171875 13.82102966308594 86.19516754150391 12.91439819335938 82.65574645996094 L -7.749786376953125 1.98516845703125 C -8.36309814453125 -0.409149169921875 -7.835250854492188 -2.952491760253906 -6.319869995117188 -4.905014038085938 C -4.804443359375 -6.8575439453125 -2.471603393554688 -7.999992370605469 0 -7.999992370605469 Z" stroke="none" fill="#1e1e1e"/>
      </g>
      <line id="선_4" data-name="선 4" x2="101.745" transform="matrix(0.951, -0.309, 0.309, 0.951, 214.194, 424.292)" fill="none" stroke="#1e1e1e" stroke-linecap="round" stroke-width="8"/>
      <line id="선_5" data-name="선 5" x2="78.344" transform="matrix(0.951, -0.309, 0.309, 0.951, 231.413, 439.42)" fill="none" stroke="#1e1e1e" stroke-linecap="round" stroke-width="8"/>
      <path id="패스_346" data-name="패스 346" d="M.091,0C-2.156,43.86,37.737,164.506,37.737,164.506" transform="matrix(0.951, -0.309, 0.309, 0.951, 141.058, 243.948)" fill="none" stroke="#1e1e1e" stroke-linecap="round" stroke-width="5"/>
      <path id="패스_347" data-name="패스 347" d="M37.646,0C38.281,44.588,0,164.506,0,164.506" transform="matrix(0.951, -0.309, 0.309, 0.951, 228.234, 215.623)" fill="none" stroke="#1e1e1e" stroke-linecap="round" stroke-width="5"/>
      <path id="패스_348" data-name="패스 348" d="M0,49.391C.674,48.161.472.226,25.971.005s28.255,19.6,28.255,33.633S45.711,57.371,36.589,57.019s-17.56-6.346-17.145-23.381S30.8-.349,51.595.005,81.161,18.642,80.884,33.639s-10.175,23.3-17.793,23.381S42.408,49.072,42.408,33.639,52.269.224,75.557.005,107.86,22.282,108,33.639,100.763,57.2,90.382,57.019,71.4,47.762,71.125,33.639,76.332-.168,102.807.005s26.409,49.386,26.409,49.386" transform="matrix(0.951, -0.309, 0.309, 0.951, 126.174, 197.842)" fill="none" stroke="#1e1e1e" stroke-width="5"/>
    </g>
  </g>
</svg>
