<svg xmlns="http://www.w3.org/2000/svg" width="14" height="14.003" viewBox="0 0 14 14.003">
  <path id="chat" d="M.008,4.2V7.467a4.2,4.2,0,0,0,4.2,4.2h.416a6.047,6.047,0,0,1,4.3,1.783l.438.438A.393.393,0,0,0,9.644,14a.4.4,0,0,0,.4-.4V11.66a4.205,4.205,0,0,0,3.967-4.194V4.2A4.2,4.2,0,0,0,9.808,0h-5.6A4.2,4.2,0,0,0,.008,4.2Zm9.1,1.633a.933.933,0,1,1,.933.933A.934.934,0,0,1,9.108,5.833Zm-3.033,0a.933.933,0,1,1,.933.933A.934.934,0,0,1,6.075,5.833Zm-3.033,0a.933.933,0,1,1,.933.933A.934.934,0,0,1,3.041,5.833Z" transform="translate(-0.008)" fill="#0d0d0d"/>
</svg>
