<svg xmlns="http://www.w3.org/2000/svg" width="40" height="40" viewBox="0 0 40 40">
  <g id="facebook-app-logo" transform="translate(0 -0.001)">
    <path id="패스_303" data-name="패스 303" d="M37.791,0H2.208A2.208,2.208,0,0,0,0,2.209V37.792A2.209,2.209,0,0,0,2.208,40H21.365V24.511H16.152V18.473h5.212V14.021c0-5.166,3.154-7.98,7.763-7.98a43.233,43.233,0,0,1,4.657.237v5.4h-3.2c-2.506,0-2.99,1.191-2.99,2.939v3.854h5.979L32.8,24.508H27.6V40H37.79A2.21,2.21,0,0,0,40,37.792V2.207A2.208,2.208,0,0,0,37.791,0Z" transform="translate(0)"/>
  </g>
</svg>
