<svg xmlns="http://www.w3.org/2000/svg" width="39" height="40" viewBox="0 0 39 40">
  <g id="github" transform="translate(-1100.149 -641)">
    <rect id="사각형_9" data-name="사각형 9" width="39" height="40" rx="10" transform="translate(1100.149 641)" fill="#1e1e1e"/>
    <path id="github_1_" data-name="github (1)" d="M12.994.5A12.881,12.881,0,0,0,0,13.269,12.79,12.79,0,0,0,8.885,25.383c.65.12.888-.275.888-.614,0-.3-.011-1.107-.016-2.171-3.614.77-4.377-1.713-4.377-1.713a3.4,3.4,0,0,0-1.446-1.868c-1.177-.792.091-.775.091-.775a2.718,2.718,0,0,1,1.99,1.316A2.8,2.8,0,0,0,9.8,20.62a2.7,2.7,0,0,1,.823-1.708C7.737,18.593,4.7,17.495,4.7,12.6A4.878,4.878,0,0,1,6.041,9.177,4.468,4.468,0,0,1,6.155,5.8s1.088-.342,3.573,1.309a12.459,12.459,0,0,1,6.5,0C18.694,5.455,19.782,5.8,19.782,5.8a4.591,4.591,0,0,1,.13,3.38A4.9,4.9,0,0,1,21.244,12.6c0,4.905-3.037,5.985-5.928,6.3a3.03,3.03,0,0,1,.877,2.363c0,1.709-.016,3.082-.016,3.5,0,.335.227.734.893.606a12.751,12.751,0,0,0,8.918-12.1A12.883,12.883,0,0,0,12.994.5Z" transform="translate(1106.883 647.935)" fill="#fff"/>
  </g>
</svg>
