<svg id="instagram" xmlns="http://www.w3.org/2000/svg" width="40" height="40" viewBox="0 0 40 40">
  <path id="패스_304" data-name="패스 304" d="M218.031,214.516A3.516,3.516,0,1,1,214.516,211,3.516,3.516,0,0,1,218.031,214.516Zm0,0" transform="translate(-194.516 -194.516)"/>
  <path id="패스_305" data-name="패스 305" d="M136.563,120H124.687A4.693,4.693,0,0,0,120,124.687v11.875a4.693,4.693,0,0,0,4.687,4.688h11.875a4.693,4.693,0,0,0,4.688-4.687V124.687A4.693,4.693,0,0,0,136.563,120Zm-5.937,16.484a5.859,5.859,0,1,1,5.859-5.859A5.866,5.866,0,0,1,130.625,136.484Zm6.719-11.406a1.172,1.172,0,1,1,1.172-1.172A1.172,1.172,0,0,1,137.344,125.078Zm0,0" transform="translate(-110.625 -110.625)"/>
  <path id="패스_306" data-name="패스 306" d="M29.453,0H10.547A10.559,10.559,0,0,0,0,10.547V29.453A10.559,10.559,0,0,0,10.547,40H29.453A10.559,10.559,0,0,0,40,29.453V10.547A10.559,10.559,0,0,0,29.453,0Zm3.516,25.938a7.039,7.039,0,0,1-7.031,7.031H14.063a7.039,7.039,0,0,1-7.031-7.031V14.063a7.039,7.039,0,0,1,7.031-7.031H25.938a7.039,7.039,0,0,1,7.031,7.031Zm0,0"/>
</svg>
