<svg xmlns="http://www.w3.org/2000/svg" width="14" height="12.359" viewBox="0 0 14 12.359">
  <g id="like" transform="translate(0 -30)">
    <g id="그룹_1" data-name="그룹 1" transform="translate(0 30)">
      <path id="패스_3" data-name="패스 3" d="M10.281,30a3.315,3.315,0,0,0-2.07.716A4.716,4.716,0,0,0,7,32.172a4.715,4.715,0,0,0-1.211-1.457A3.315,3.315,0,0,0,3.719,30,3.8,3.8,0,0,0,0,34.034c0,2.484,1.995,4.184,5.014,6.757.513.437,1.094.932,1.7,1.461a.438.438,0,0,0,.576,0c.6-.528,1.185-1.024,1.7-1.461C12.005,38.218,14,36.518,14,34.034A3.8,3.8,0,0,0,10.281,30Z" transform="translate(0 -30)" fill="#0d0d0d"/>
    </g>
  </g>
</svg>
