<svg xmlns="http://www.w3.org/2000/svg" width="212.63" height="41.8" viewBox="0 0 212.63 41.8">
  <path id="logo" d="M-89.6,0h3.85V-15.125a10.121,10.121,0,0,0-2.2-6.793,7.826,7.826,0,0,0-2.695-2.035,9.983,9.983,0,0,0-4.18-.743,7.919,7.919,0,0,0-4.565,1.347,10.3,10.3,0,0,0-3.08,3.307V-24.2h-3.85V0h3.85V-10.12a13.557,13.557,0,0,1,1.733-7.343,7.6,7.6,0,0,1,2.5-2.448,7.657,7.657,0,0,1,4.015-.935,3.888,3.888,0,0,1,3.548,1.677A7.347,7.347,0,0,1-89.6-15.125ZM-58.52-12.21a8.411,8.411,0,0,1-2.585,6.16A8.474,8.474,0,0,1-67.32-3.465,8.474,8.474,0,0,1-73.535-6.05a8.411,8.411,0,0,1-2.585-6.16,8.474,8.474,0,0,1,2.585-6.215A8.474,8.474,0,0,1-67.32-21.01a8.474,8.474,0,0,1,6.215,2.585A8.474,8.474,0,0,1-58.52-12.21Zm3.85,0a12.183,12.183,0,0,0-3.713-8.937A12.183,12.183,0,0,0-67.32-24.86a12.183,12.183,0,0,0-8.937,3.712A12.183,12.183,0,0,0-79.97-12.21,12.027,12.027,0,0,0-76.258-3.3,12.3,12.3,0,0,0-67.32.385,12.3,12.3,0,0,0-58.383-3.3,12.027,12.027,0,0,0-54.67-12.21ZM-31.35,0h3.85V-15.125a10.121,10.121,0,0,0-2.2-6.793,7.826,7.826,0,0,0-2.7-2.035,9.983,9.983,0,0,0-4.18-.743,7.919,7.919,0,0,0-4.565,1.347,10.3,10.3,0,0,0-3.08,3.307V-24.2h-3.85V0h3.85V-10.12a13.557,13.557,0,0,1,1.732-7.343,7.6,7.6,0,0,1,2.5-2.448,7.657,7.657,0,0,1,4.015-.935,3.888,3.888,0,0,1,3.548,1.677,7.347,7.347,0,0,1,1.072,4.043ZM-.825-12.1A8.745,8.745,0,0,1-3.273-5.94,7.976,7.976,0,0,1-9.35-3.3a7.976,7.976,0,0,1-6.078-2.64,8.745,8.745,0,0,1-2.447-6.16,8.745,8.745,0,0,1,2.447-6.16A7.976,7.976,0,0,1-9.35-20.9a7.976,7.976,0,0,1,6.078,2.64A8.745,8.745,0,0,1-.825-12.1ZM3.025,0V-24.2H-.825v4.132q-.324-.424-.687-.832a10.867,10.867,0,0,0-8.443-3.85A10.867,10.867,0,0,0-18.4-20.9a12.8,12.8,0,0,0-3.327,8.8A12.8,12.8,0,0,0-18.4-3.3,10.867,10.867,0,0,0-9.955.55,10.867,10.867,0,0,0-1.513-3.3q.364-.408.687-.832V0Zm38.94-.11h3.85V-15.235a10.678,10.678,0,0,0-2.007-6.71,7.584,7.584,0,0,0-2.558-2.118,8.877,8.877,0,0,0-4.07-.8,7.346,7.346,0,0,0-4.427,1.375,9.956,9.956,0,0,0-2.833,3.223A8.779,8.779,0,0,0,28.9-21.945a7.584,7.584,0,0,0-2.558-2.118,8.877,8.877,0,0,0-4.07-.8,7.346,7.346,0,0,0-4.427,1.375,9.894,9.894,0,0,0-2.723,3.031V-24.31h-3.85V-.11h3.85V-12.491a12.654,12.654,0,0,1,1.485-5,7.438,7.438,0,0,1,2.365-2.53,5.644,5.644,0,0,1,3.19-.99,4.825,4.825,0,0,1,2.53.523q2.365,1.5,2.365,5.253V-.11h3.85V-15.235q0-.475-.027-.93a10.154,10.154,0,0,1,.632-1.325,7.437,7.437,0,0,1,2.365-2.53,5.644,5.644,0,0,1,3.19-.99,4.825,4.825,0,0,1,2.53.523q2.365,1.5,2.365,5.253ZM76.89-12.65a11.53,11.53,0,0,0-3.823-8.635A12.382,12.382,0,0,0,64.24-24.86,12.183,12.183,0,0,0,55.3-21.148,12.183,12.183,0,0,0,51.59-12.21,12.027,12.027,0,0,0,55.3-3.3a13.1,13.1,0,0,0,4.015,2.7,13.781,13.781,0,0,0,5.5.99,11.538,11.538,0,0,0,6.325-2.008A12.32,12.32,0,0,0,75.79-7.1h-4.4a8.9,8.9,0,0,1-3.162,2.668,8.7,8.7,0,0,1-3.988.963A8.7,8.7,0,0,1,58.63-5.5,8.248,8.248,0,0,1,55.6-10.615H76.89Zm-4.07-1.265H55.66a8.547,8.547,0,0,1,1.155-2.833A8.406,8.406,0,0,1,64.24-21.01a8.33,8.33,0,0,1,5.473,1.98A8.892,8.892,0,0,1,72.82-13.915ZM102.465-12.1a8.745,8.745,0,0,1-2.447,6.16A7.976,7.976,0,0,1,93.94-3.3a7.976,7.976,0,0,1-6.077-2.64,8.745,8.745,0,0,1-2.448-6.16,8.745,8.745,0,0,1,2.448-6.16A7.976,7.976,0,0,1,93.94-20.9a7.976,7.976,0,0,1,6.078,2.64A8.745,8.745,0,0,1,102.465-12.1ZM106.315,0V-41.25h-3.85v21.182q-.324-.424-.687-.832a10.867,10.867,0,0,0-8.442-3.85,10.867,10.867,0,0,0-8.443,3.85,12.8,12.8,0,0,0-3.327,8.8,12.8,12.8,0,0,0,3.327,8.8A10.867,10.867,0,0,0,93.335.55a10.867,10.867,0,0,0,8.442-3.85q.364-.408.688-.832V0Z" transform="translate(106.315 41.25)" fill="#31343a"/>
</svg>
