<svg xmlns="http://www.w3.org/2000/svg" width="123.2" height="23.159" viewBox="0 0 123.2 23.159">
  <path id="logo" d="M11.367.308a10.646,10.646,0,0,1-4.46-.879,6.824,6.824,0,0,1-3-2.549A7.369,7.369,0,0,1,2.842-7.178V-18.311L.571-18.75v-2.578H9.4v2.578l-2.285.439V-7.178a4.839,4.839,0,0,0,.513,2.344A3.248,3.248,0,0,0,9.1-3.435a5.16,5.16,0,0,0,2.271.461,5.283,5.283,0,0,0,2.307-.461,3.24,3.24,0,0,0,1.472-1.4,4.839,4.839,0,0,0,.513-2.344V-18.311l-2.271-.439v-2.578h8.833v2.578l-2.285.439V-7.178A7.368,7.368,0,0,1,18.86-3.113a6.808,6.808,0,0,1-3,2.549A10.8,10.8,0,0,1,11.367.308ZM24.74,0V-2.563L26.791-3v-9.829l-2.271-.439V-15.85h6.255l.19,2.271a5.773,5.773,0,0,1,1.956-1.89,5.211,5.211,0,0,1,2.659-.674,4.67,4.67,0,0,1,3.691,1.509A7.02,7.02,0,0,1,40.6-9.9V-3l2.051.439V0H34.481V-2.563L36.312-3V-9.888a3.258,3.258,0,0,0-.63-2.263,2.461,2.461,0,0,0-1.875-.667,3.185,3.185,0,0,0-1.6.388,3.231,3.231,0,0,0-1.135,1.106V-3l1.729.439V0ZM50.96.308A4.559,4.559,0,0,1,47.554-.908,5.331,5.331,0,0,1,46.36-4.761v-8.086H44.177v-3H46.36v-3.882h4.263v3.882h2.915v3H50.623v8.071a1.842,1.842,0,0,0,.388,1.318,1.42,1.42,0,0,0,1.062.4,6.168,6.168,0,0,0,.762-.051q.41-.051.7-.11L53.9-.132a12.148,12.148,0,0,1-1.428.315A9.475,9.475,0,0,1,50.96.308ZM56.935,0V-2.563L59-3v-9.829l-2.285-.439V-15.85h6.563V-3l2.051.439V0Zm1.919-19.2v-3.647h4.424V-19.2ZM74.175.308A4.559,4.559,0,0,1,70.769-.908a5.331,5.331,0,0,1-1.194-3.853v-8.086H67.393v-3h2.183v-3.882h4.263v3.882h2.915v3H73.838v8.071a1.842,1.842,0,0,0,.388,1.318,1.42,1.42,0,0,0,1.062.4,6.168,6.168,0,0,0,.762-.051q.41-.051.7-.11l.366,3.091a12.148,12.148,0,0,1-1.428.315A9.475,9.475,0,0,1,74.175.308ZM79.682,0V-2.563L81.747-3V-19.834l-2.285-.439v-2.578h6.563V-3l2.065.439V0ZM97.976.308a7.662,7.662,0,0,1-3.97-1,6.883,6.883,0,0,1-2.629-2.761,8.451,8.451,0,0,1-.93-4.014v-.586a9.52,9.52,0,0,1,.879-4.182,6.951,6.951,0,0,1,2.483-2.871A6.684,6.684,0,0,1,97.6-16.143a7.111,7.111,0,0,1,3.618.85,5.476,5.476,0,0,1,2.227,2.446,8.924,8.924,0,0,1,.762,3.867V-6.65H94.886l-.029.088a4.759,4.759,0,0,0,.52,1.853A3.168,3.168,0,0,0,96.6-3.435a3.748,3.748,0,0,0,1.919.461,7.708,7.708,0,0,0,2.19-.3,8.419,8.419,0,0,0,1.985-.886l1.157,2.637a8.231,8.231,0,0,1-2.468,1.311A10.292,10.292,0,0,1,97.976.308ZM94.915-9.478H100.2v-.381a4.817,4.817,0,0,0-.256-1.663,2.157,2.157,0,0,0-.82-1.077,2.555,2.555,0,0,0-1.458-.381,2.3,2.3,0,0,0-1.436.447,2.945,2.945,0,0,0-.916,1.223,6.437,6.437,0,0,0-.447,1.758ZM113.473.308a5.41,5.41,0,0,1-3.245-.974,6.112,6.112,0,0,1-2.073-2.725,10.742,10.742,0,0,1-.718-4.094v-.308a12.108,12.108,0,0,1,.725-4.38,6.617,6.617,0,0,1,2.073-2.922,5.1,5.1,0,0,1,3.223-1.047,4.811,4.811,0,0,1,2.285.52,5.123,5.123,0,0,1,1.7,1.472v-5.684l-2.285-.439v-2.578h6.563V-3l2.051.439V0h-5.757l-.322-1.934a5.2,5.2,0,0,1-1.78,1.67A4.961,4.961,0,0,1,113.473.308Zm1.274-3.325a3.131,3.131,0,0,0,1.567-.381,3.188,3.188,0,0,0,1.128-1.1v-6.724A3.281,3.281,0,0,0,116.33-12.4a2.887,2.887,0,0,0-1.553-.417,2.46,2.46,0,0,0-1.75.637,3.724,3.724,0,0,0-1,1.765,9.793,9.793,0,0,0-.315,2.622v.308a6.456,6.456,0,0,0,.7,3.274A2.489,2.489,0,0,0,114.748-3.018Z" transform="translate(-0.571 22.852)" fill="#0d0d0d"/>
</svg>
