<svg xmlns="http://www.w3.org/2000/svg" width="253.596" height="31.203" viewBox="0 0 253.596 31.203">
  <path id="logo" d="M6.438,0V-2.406l2.484-.469V-19.734H4.344L4-16.828H1.047V-22.75h19.7v5.922H17.781l-.344-2.906H12.859V-2.875l2.484.469V0ZM23.522,0V-2.406l2.344-.469V-21.484l-2.484-.469v-2.422h6.406v9.656a5.864,5.864,0,0,1,2.047-1.844,5.707,5.707,0,0,1,2.75-.656,5.228,5.228,0,0,1,4.1,1.664q1.492,1.664,1.492,5.133v7.547l2.344.469V0H34.038V-2.406l2.219-.469v-7.578a4.1,4.1,0,0,0-.781-2.8,2.948,2.948,0,0,0-2.3-.859,3.971,3.971,0,0,0-1.945.477A4.117,4.117,0,0,0,29.788-12.3v9.422l2.219.469V0ZM52.967.328A7.9,7.9,0,0,1,48.8-.742,7.291,7.291,0,0,1,46.053-3.7a9.3,9.3,0,0,1-.977-4.328v-.656a9.737,9.737,0,0,1,.961-4.4,7.553,7.553,0,0,1,2.648-3.031,6.875,6.875,0,0,1,3.844-1.1,7.439,7.439,0,0,1,3.852.922,5.863,5.863,0,0,1,2.352,2.617,9.5,9.5,0,0,1,.8,4.07v2.25H49.154l-.031.078a6.092,6.092,0,0,0,.555,2.359A3.89,3.89,0,0,0,51.084-3.3a4,4,0,0,0,2.227.594,7.873,7.873,0,0,0,2.5-.375,7.685,7.685,0,0,0,2.078-1.062l1.234,2.469A8.566,8.566,0,0,1,56.576-.25,10.289,10.289,0,0,1,52.967.328Zm-3.75-10.453h6.547v-.406a5.193,5.193,0,0,0-.336-1.945,2.743,2.743,0,0,0-1.047-1.3,3.216,3.216,0,0,0-1.8-.469,2.737,2.737,0,0,0-1.672.531,3.723,3.723,0,0,0-1.148,1.445,7.066,7.066,0,0,0-.586,2.07ZM62.9,0V-2.406l2.344-.469V-14.016l-2.469-.469v-2.422h6.094l.2,2.125.031.344A5.61,5.61,0,0,1,70.747-16.5a3.757,3.757,0,0,1,2.289-.719,5.943,5.943,0,0,1,.93.078,6.346,6.346,0,0,1,.8.172l-.453,3.641-2.2-.125a2.743,2.743,0,0,0-1.773.422,3.839,3.839,0,0,0-1.164,1.344v8.813l2.344.469V0ZM84.934.328A7.9,7.9,0,0,1,80.77-.742,7.291,7.291,0,0,1,78.02-3.7a9.3,9.3,0,0,1-.977-4.328v-.656a9.737,9.737,0,0,1,.961-4.4,7.553,7.553,0,0,1,2.648-3.031,6.875,6.875,0,0,1,3.844-1.1,7.439,7.439,0,0,1,3.852.922A5.862,5.862,0,0,1,90.7-13.68a9.5,9.5,0,0,1,.8,4.07v2.25H81.121l-.031.078a6.092,6.092,0,0,0,.555,2.359A3.89,3.89,0,0,0,83.051-3.3a4,4,0,0,0,2.227.594,7.873,7.873,0,0,0,2.5-.375,7.685,7.685,0,0,0,2.078-1.062L91.09-1.672A8.566,8.566,0,0,1,88.543-.25,10.289,10.289,0,0,1,84.934.328Zm-3.75-10.453h6.547v-.406a5.193,5.193,0,0,0-.336-1.945,2.743,2.743,0,0,0-1.047-1.3,3.216,3.216,0,0,0-1.8-.469,2.737,2.737,0,0,0-1.672.531,3.723,3.723,0,0,0-1.148,1.445,7.066,7.066,0,0,0-.586,2.07Zm14.022-6.141v-8.109h3v3.781l-1.187,4.328ZM107.7.328a15.467,15.467,0,0,1-3.383-.352,17.4,17.4,0,0,1-3.148-1.039l-.047-4.469h2.828l.594,2.438a7.7,7.7,0,0,0,1.383.461,7.066,7.066,0,0,0,1.586.164,3.7,3.7,0,0,0,2.383-.594,1.857,1.857,0,0,0,.7-1.469,1.819,1.819,0,0,0-.727-1.445,6.912,6.912,0,0,0-2.773-1.039,9.94,9.94,0,0,1-4.461-1.914A4.155,4.155,0,0,1,101.2-12.2a4.469,4.469,0,0,1,.742-2.516,5.172,5.172,0,0,1,2.188-1.8,8.322,8.322,0,0,1,3.555-.68,13.273,13.273,0,0,1,3.414.4,9.265,9.265,0,0,1,2.539,1.055l.094,4.3h-2.8l-.484-2.234a3.743,3.743,0,0,0-1.125-.531,5.237,5.237,0,0,0-1.469-.187,3.306,3.306,0,0,0-2.047.57,1.731,1.731,0,0,0-.75,1.43,1.736,1.736,0,0,0,.242.906,2.133,2.133,0,0,0,.938.742,10.275,10.275,0,0,0,2.039.648,11.186,11.186,0,0,1,4.719,2,4.112,4.112,0,0,1,1.422,3.266,4.725,4.725,0,0,1-1.656,3.719A7.512,7.512,0,0,1,107.7.328ZM126.492,0V-2.406l2.484-.469V-19.859l-2.484-.469V-22.75h6.469L143.4-6.141l.094-.031V-19.859l-2.875-.469V-22.75h8.906v2.422l-2.484.469V0H143.3L132.617-16.547l-.094.016V-2.875l2.875.469V0Zm33.835.328A7.741,7.741,0,0,1,156.14-.766,7.163,7.163,0,0,1,153.452-3.8a10.192,10.192,0,0,1-.937-4.477v-.328a10.1,10.1,0,0,1,.938-4.453,7.276,7.276,0,0,1,2.688-3.047,7.6,7.6,0,0,1,4.156-1.109,7.7,7.7,0,0,1,4.188,1.1,7.224,7.224,0,0,1,2.688,3.039,10.141,10.141,0,0,1,.938,4.469v.328a10.192,10.192,0,0,1-.937,4.477,7.18,7.18,0,0,1-2.68,3.039A7.671,7.671,0,0,1,160.327.328Zm0-3.031a3.262,3.262,0,0,0,2.164-.711,4.252,4.252,0,0,0,1.273-1.969,9.109,9.109,0,0,0,.422-2.9v-.328a8.981,8.981,0,0,0-.422-2.875,4.277,4.277,0,0,0-1.281-1.969,3.294,3.294,0,0,0-2.187-.719,3.247,3.247,0,0,0-2.156.719,4.225,4.225,0,0,0-1.273,1.969,9.137,9.137,0,0,0-.414,2.875v.328a9.267,9.267,0,0,0,.414,2.9,4.145,4.145,0,0,0,1.281,1.969A3.325,3.325,0,0,0,160.327-2.7Zm17.21,3a4.524,4.524,0,0,1-3.359-1.211,5.317,5.317,0,0,1-1.2-3.867v-9.312h-2.469v-2.812h2.469v-4.109H176.9v4.109h3.344v2.813H176.9v9.313a2.3,2.3,0,0,0,.445,1.57,1.551,1.551,0,0,0,1.211.492,6.865,6.865,0,0,0,.977-.078q.539-.078.867-.156L180.8-.187a12.54,12.54,0,0,1-1.57.344A10.782,10.782,0,0,1,177.537.3Zm5.741-.3V-2.406l2.344-.469V-21.484l-2.484-.469v-2.422h6.406v9.656a5.864,5.864,0,0,1,2.047-1.844,5.707,5.707,0,0,1,2.75-.656,5.228,5.228,0,0,1,4.1,1.664q1.492,1.664,1.492,5.133v7.547l2.344.469V0h-8.484V-2.406l2.219-.469v-7.578a4.1,4.1,0,0,0-.781-2.8,2.948,2.948,0,0,0-2.3-.859,3.971,3.971,0,0,0-1.945.477,4.117,4.117,0,0,0-1.445,1.336v9.422l2.219.469V0Zm21.585,0V-2.406l2.344-.469V-14.016l-2.484-.469v-2.422h6.422V-2.875l2.328.469V0Zm2.188-20.734v-3.641h4.094v3.641ZM216.1,0V-2.406l2.344-.469V-14.016l-2.469-.469v-2.422h6.094l.2,2.453a6.134,6.134,0,0,1,2.1-2.039,5.6,5.6,0,0,1,2.852-.727,5.206,5.206,0,0,1,4.063,1.6q1.453,1.6,1.453,5.008v7.734l2.344.469V0H226.6V-2.406l2.2-.469v-7.7a3.9,3.9,0,0,0-.766-2.727,3.006,3.006,0,0,0-2.281-.8,3.816,3.816,0,0,0-1.992.508,3.916,3.916,0,0,0-1.383,1.414v9.313l2.141.469V0ZM245.1,6.828a12.979,12.979,0,0,1-2.773-.336,11.075,11.075,0,0,1-2.68-.93l.813-2.875a11.882,11.882,0,0,0,2.2.734,10.033,10.033,0,0,0,2.281.281,3.5,3.5,0,0,0,2.836-1.07,4.573,4.573,0,0,0,.9-3.023V-1.719A5.257,5.257,0,0,1,246.815-.2a5.584,5.584,0,0,1-2.469.523A6.1,6.1,0,0,1,240.792-.7a6.494,6.494,0,0,1-2.281-2.891,10.966,10.966,0,0,1-.789-4.312v-.328a12.905,12.905,0,0,1,.789-4.719,7.075,7.075,0,0,1,2.266-3.141,5.645,5.645,0,0,1,3.523-1.125,5.453,5.453,0,0,1,2.688.633,5.651,5.651,0,0,1,1.938,1.8l.3-2.125h3.391V-.375a7.8,7.8,0,0,1-.891,3.82,6.1,6.1,0,0,1-2.578,2.5A8.629,8.629,0,0,1,245.1,6.828Zm.313-9.609a3.7,3.7,0,0,0,1.945-.484,3.707,3.707,0,0,0,1.32-1.406V-12.2a3.942,3.942,0,0,0-1.328-1.4,3.551,3.551,0,0,0-1.922-.508,3.093,3.093,0,0,0-2.133.742,4.368,4.368,0,0,0-1.234,2.063,10.658,10.658,0,0,0-.4,3.07v.328a6.808,6.808,0,0,0,.9,3.734A3.146,3.146,0,0,0,245.409-2.781Zm6.672-11.156-1.656-2.969h4.219v2.422Z" transform="translate(-1.047 24.375)" fill="#0d0d0d"/>
</svg>
