<svg xmlns="http://www.w3.org/2000/svg" width="262.379" height="215.81" viewBox="0 0 262.379 215.81">
  <g id="person" transform="translate(-501.803 -466.468)">
    <path id="hair" d="M198.815,1796.955c10.752,9.211,13.523,21.844,11.754,34.429s-9.58,21.8-10.43,22.877c-10.44,13.276-26.884,16.429-41.005,11.781-1.84-5.947-18.618-17.776-22.021-27.607s-3.953-18.891,2.6-31.406,20.2-16.345,27.493-14.517C170.958,1788.969,188.063,1787.744,198.815,1796.955Z" transform="translate(182.379 -1276.612) rotate(-8)"/>
    <g id="body">
      <path id="패스_274" data-name="패스 274" d="M2309.939,3840.824c-31.455,1.591-30.126-1.872-55.4,18.955a50.282,50.282,0,0,0-17.811,49.357s41,8.647,82.069,9.514a371.2,371.2,0,0,0,74.411-6.014s-7.578-34.886-22.188-49.962S2341.395,3839.233,2309.939,3840.824Z" transform="translate(-1686.209 -3280.475)" fill="#565656"/>
      <path id="패스_275" data-name="패스 275" d="M2283.3,3822.523c.108.805,1.829,18.524,1.829,18.524s1.648,3.68,9.288,2.667,8.573-5.185,8.573-5.185l-3.443-17.92Z" transform="translate(-1672.755 -3278.056)" fill="#fff"/>
      <path id="패스_276" data-name="패스 276" d="M2284.684,3843.6c.029.022,13.453,10.671,22.4-.488" transform="translate(-1676.846 -3282.094)" fill="none" stroke="#000" stroke-linecap="round" stroke-width="1"/>
      <path id="패스_277" data-name="패스 277" d="M2331.861,3870.4l2.949,20.635" transform="translate(-1664.028 -3262.539)" fill="none" stroke="#000" stroke-linecap="round" stroke-width="1"/>
    </g>
    <path id="face" d="M2300.272,3834.552c12.45-2.552,19.565-17.08,16.8-33.768s-15.019-29.253-29.844-27.3-24.9,16.1-20.747,37.9S2287.822,3837.1,2300.272,3834.552Z" transform="translate(-1678.303 -3286.667)" fill="#fff"/>
    <path id="ear" d="M2266.755,3793.692s-9.121.351-7.964,8.4,10.273,5.572,10.273,5.572Z" transform="translate(-1678.521 -3276.097)" fill="#fff"/>
    <g id="table" transform="translate(-25.904 -28.284)">
      <path id="패스_284" data-name="패스 284" d="M3451.454,3405.684l261.1-5.12s1.643,53.621-136.262,55.925S3451.454,3405.684,3451.454,3405.684Z" transform="translate(-2922.978 -2746)" fill="#fff"/>
      <path id="패스_285" data-name="패스 285" d="M3712.575,3400.564l-261.358,5.337" transform="translate(-2923 -2746)" fill="none" stroke="#000" stroke-linecap="round" stroke-width="1"/>
    </g>
    <g id="arm" transform="matrix(0.996, -0.087, 0.087, 0.996, 538.665, 558.427)">
      <g id="hand" transform="translate(-599.563 -623.981) rotate(5)">
        <path id="패스_290" data-name="패스 290" d="M3626.6,3293.878s-5.188-3.978-4.783,1.271,9.56,6.382,9.56,6.382Z" transform="translate(-2923 -2746.783)" fill="#fff" stroke="#000" stroke-width="0.8"/>
        <path id="패스_287" data-name="패스 287" d="M3634.111,3318.614l16.188,1.254s3.3-11.039,3.474-17-2.913-6.01-7.47-9.048-3.1-8.382-6.262-10.269-3.646,2.64-3.646,2.64-1.3-2.708-3.592-2.64-2.315,2.64-2.315,2.64-2.363-1.344-3.837.572-2.063,7.93,3.385,13.482,5.284,5.26,5.217,10.049A33.225,33.225,0,0,1,3634.111,3318.614Z" transform="translate(-2923.263 -2746)" fill="#fff" stroke="#000" stroke-width="0.8"/>
        <path id="패스_288" data-name="패스 288" d="M3630.992,3286.237s.017,3.491,1.521,5.411" transform="translate(-2923.776 -2746.192)" fill="#fff" stroke="#000" stroke-linecap="round" stroke-width="0.8"/>
        <path id="패스_289" data-name="패스 289" d="M3630.567,3286.257s.552,4.161,2.524,6.081" transform="translate(-2917.342 -2746.211)" fill="#fff" stroke="#000" stroke-linecap="round" stroke-width="0.8"/>
      </g>
      <path id="패스_271" data-name="패스 271" d="M2295.58,3839.882s-49.3,25.659-59.741,49.106,7.807,28.479,21.383,26.994,33.253-20.285,42.623-40.034a221.938,221.938,0,0,0,13.257-34.416,31.441,31.441,0,0,1-11.323.789C2296.4,3841.484,2295.58,3839.882,2295.58,3839.882Z" transform="translate(-2686.145 -3528.438) rotate(-7)" fill="#565656"/>
      <path id="패스_283" data-name="패스 283" d="M2296.8,3857.214s-13.181,24.364-27.257,36.322-40.332,9.555-40.164-6.7" transform="translate(-2680.447 -3513.732) rotate(-7)" fill="none" stroke="#000" stroke-linecap="round" stroke-width="1"/>
      <path id="패스_286" data-name="패스 286" d="M601.884,560.845s5.765,4.17,17.174-.315" transform="translate(-541.481 -557.887)" fill="none" stroke="#000" stroke-linecap="round" stroke-width="0.8"/>
    </g>
    <g id="eyes" transform="translate(598.462 509.371)">
      <ellipse id="타원_17" data-name="타원 17" cx="2.5" cy="3" rx="2.5" ry="3" transform="translate(1.538 2.345)" fill="#1e1e1e"/>
      <ellipse id="타원_18" data-name="타원 18" cx="2.5" cy="3" rx="2.5" ry="3" transform="translate(23.538 -1.655)" fill="#1e1e1e"/>
    </g>
    <path id="패스_291" data-name="패스 291" d="M598.424,556.3s-52.782,43.6-47.067,75.317" fill="none" stroke="#000" stroke-width="0.7"/>
    <path id="패스_301" data-name="패스 301" d="M610.873,518.577s6.214-1.214,9.391.623" transform="translate(-1)" fill="none" stroke="#1e1e1e" stroke-linecap="round" stroke-width="1"/>
    <path id="패스_307" data-name="패스 307" d="M145.312,51.668c3.769-13.191,18.449-13.128,19.454-13.128S162,36.154,162,36.154s15.955,2.889,17.085,3.015-3.643-3.518-3.643-3.518,7.681.58,12.395,3.518A17.04,17.04,0,0,1,194.3,47.4c.377,0-2.9-10.369-2.9-10.369S185.118,20.7,164.766,26.48,145.312,51.668,145.312,51.668Z" transform="translate(435.984 482.058) rotate(-8)"/>
    <g id="pot" transform="translate(-15 -30.284)">
      <path id="패스_292" data-name="패스 292" d="M-4.2,0H30.177l-3.24,26.218a36.908,36.908,0,0,1-14.444,2.828A31.423,31.423,0,0,1-.783,26.218Z" transform="translate(703 652.366)" fill="#b5b5b5"/>
      <path id="패스_295" data-name="패스 295" d="M17.982-.3C27.923-.3,35.8.817,35.8,2.2S27.941,5,18,5-.018,3.578-.018,2.2,8.041-.3,17.982-.3Z" transform="translate(698 643)" fill="#858585"/>
      <path id="패스_296" data-name="패스 296" d="M3638.854,3391.107s-4.541-13.5,1.211-18.194" transform="translate(-2923 -2741)" fill="none" stroke="#0dc700" stroke-linecap="round" stroke-width="1"/>
      <path id="패스_293" data-name="패스 293" d="M0,.107S1.6,2.443,17.567,2.6,35.8.188,35.8.188L35.774,10a99.585,99.585,0,0,1-18.207,1.983A88.59,88.59,0,0,1,0,10Z" transform="translate(698 645)" fill="#b5b5b5"/>
      <path id="패스_294" data-name="패스 294" d="M3621.195,3400.976a72.957,72.957,0,0,0,35.319,0" transform="translate(-2923 -2746)" fill="none" stroke="#000" stroke-linecap="round" stroke-width="0.5"/>
      <path id="패스_297" data-name="패스 297" d="M3641.619,3376.977s1.437-4.017,4.348-5.085,7.3.811,7.3.811-2.616,4.238-5.527,5.306S3641.619,3376.977,3641.619,3376.977Z" transform="translate(-2925 -2745)" fill="#0dc700"/>
      <path id="패스_298" data-name="패스 298" d="M3641.619,3376.977s1.437-4.017,4.348-5.085,7.3.811,7.3.811-2.616,4.238-5.527,5.306S3641.619,3376.977,3641.619,3376.977Z" transform="translate(384.032 5587.449) rotate(-129)" fill="#0dc700"/>
      <path id="패스_299" data-name="패스 299" d="M3641.495,3377.1s2.386-2.932,7.621-2.712" transform="translate(-2923 -2746)" fill="none" stroke="#076800" stroke-linecap="round" stroke-width="0.3"/>
      <path id="패스_300" data-name="패스 300" d="M3647.88,3376.088s-2-1.843-6.385-1.7" transform="translate(-2221.884 -3379.306) rotate(11)" fill="none" stroke="#076800" stroke-linecap="round" stroke-width="0.3"/>
    </g>
    <path id="패스_308" data-name="패스 308" d="M654.825,552.2s-.661,21.507-16.186,24.775" transform="translate(-15 -30.284)" fill="none" stroke="#000" stroke-linecap="round" stroke-width="0.8"/>
    <path id="패스_309" data-name="패스 309" d="M642.238,575.982l3.021,15.311" transform="translate(-15 -30.284)" fill="none" stroke="#000" stroke-linecap="round" stroke-width="1"/>
  </g>
</svg>
