<svg xmlns="http://www.w3.org/2000/svg" width="298.677" height="512" viewBox="0 0 298.677 512">
  <g id="pin" transform="translate(-106.661)">
    <g id="그룹_18" data-name="그룹 18">
      <path id="패스_315" data-name="패스 315" d="M399.292,267.208C383.545,237.4,358.977,211.776,330.017,194l-8.746-67.6c25-19.539,41.4-49.624,41.4-83.74C362.667,13.354,307.375,0,256,0S149.333,13.354,149.333,42.667c0,34.118,16.4,64.2,41.4,83.743l-8.772,67.612c-28.947,17.758-53.506,43.361-69.254,73.186a54.77,54.77,0,0,0-3.229,42.448c4.271,13.031,13.146,23.6,24.323,29.021,33.534,16.259,71.794,21.91,102.813,23.444L245.354,502a10.667,10.667,0,0,0,21.292,0l8.74-139.879c31.018-1.534,69.277-7.184,102.8-23.434,11.188-5.427,20.063-16,24.333-29.031A54.774,54.774,0,0,0,399.292,267.208Z" fill="#1e1e1e"/>
    </g>
  </g>
</svg>
