<svg xmlns="http://www.w3.org/2000/svg" width="26.087" height="25" viewBox="0 0 26.087 25">
  <path id="github_1_" data-name="github (1)" d="M13.043.5A12.93,12.93,0,0,0,0,13.317,12.839,12.839,0,0,0,8.918,25.478c.652.121.891-.276.891-.616,0-.3-.011-1.111-.016-2.179-3.628.773-4.393-1.72-4.393-1.72a3.417,3.417,0,0,0-1.451-1.875c-1.182-.795.091-.778.091-.778a2.729,2.729,0,0,1,2,1.321,2.809,2.809,0,0,0,3.8,1.066,2.714,2.714,0,0,1,.826-1.714c-2.9-.321-5.941-1.423-5.941-6.334A4.9,4.9,0,0,1,6.064,9.21a4.485,4.485,0,0,1,.114-3.392s1.092-.343,3.587,1.314a12.506,12.506,0,0,1,6.522,0c2.478-1.658,3.571-1.314,3.571-1.314a4.608,4.608,0,0,1,.13,3.392,4.917,4.917,0,0,1,1.337,3.439c0,4.924-3.049,6.008-5.951,6.323a3.041,3.041,0,0,1,.88,2.372c0,1.715-.016,3.093-.016,3.51,0,.336.228.737.9.609a12.8,12.8,0,0,0,8.952-12.144A12.932,12.932,0,0,0,13.043.5Z" transform="translate(0 -0.5)" fill="#fff"/>
</svg>
