<svg xmlns="http://www.w3.org/2000/svg" width="66.048" height="63.297" viewBox="0 0 66.048 63.297">
  <path id="github" d="M33.024.5C14.778.5,0,15.031,0,32.952A32.506,32.506,0,0,0,22.58,63.741c1.651.305,2.257-.7,2.257-1.56,0-.771-.028-2.813-.041-5.518-9.186,1.957-11.124-4.354-11.124-4.354C12.169,48.564,10,47.562,10,47.562c-2.991-2.012.231-1.97.231-1.97a6.909,6.909,0,0,1,5.058,3.344c2.945,4.962,7.73,3.528,9.618,2.7A6.871,6.871,0,0,1,27,47.3c-7.334-.812-15.042-3.6-15.042-16.036a12.4,12.4,0,0,1,3.4-8.707,11.354,11.354,0,0,1,.289-8.589s2.766-.87,9.082,3.327a31.663,31.663,0,0,1,16.512,0c6.275-4.2,9.04-3.327,9.04-3.327a11.668,11.668,0,0,1,.33,8.589,12.449,12.449,0,0,1,3.385,8.707c0,12.467-7.719,15.21-15.067,16.008,1.156.974,2.229,2.964,2.229,6,0,4.343-.041,7.832-.041,8.886,0,.85.578,1.866,2.27,1.541A32.407,32.407,0,0,0,66.048,32.952C66.048,15.031,51.262.5,33.024.5Z" transform="translate(0 -0.5)" fill="#212121"/>
</svg>
