<svg xmlns="http://www.w3.org/2000/svg" width="173.79" height="29.446" viewBox="0 0 173.79 29.446">
  <path id="logo" d="M.875,4.68V1.421L3.762.862V-18.6L.875-19.16v-3.278h8.4L21.083-3.627l.112-.019V-18.6l-3.464-.559v-3.278H28.962v3.278l-2.906.559V4.68H20.8L8.735-13.945l-.112.019V.862l3.483.559V4.68Zm39.615.391a9.664,9.664,0,0,1-5.122-1.3A8.542,8.542,0,0,1,32.091.145a11.98,11.98,0,0,1-1.136-5.336v-.391A11.936,11.936,0,0,1,32.091-10.9a8.622,8.622,0,0,1,3.269-3.632,9.526,9.526,0,0,1,5.094-1.313,9.55,9.55,0,0,1,5.122,1.313,8.654,8.654,0,0,1,3.259,3.623,11.921,11.921,0,0,1,1.136,5.327v.391A11.98,11.98,0,0,1,48.834.145a8.58,8.58,0,0,1-3.259,3.623A9.529,9.529,0,0,1,40.49,5.071ZM40.49.9A3.431,3.431,0,0,0,42.8.136,4.482,4.482,0,0,0,44.122-2a10.723,10.723,0,0,0,.428-3.194v-.391a10.582,10.582,0,0,0-.428-3.157,4.508,4.508,0,0,0-1.332-2.142,3.469,3.469,0,0,0-2.337-.773,3.449,3.449,0,0,0-2.31.773,4.416,4.416,0,0,0-1.332,2.142,10.8,10.8,0,0,0-.419,3.157v.391a11.042,11.042,0,0,0,.419,3.2A4.3,4.3,0,0,0,38.144.145,3.562,3.562,0,0,0,40.49.9Zm11.7,3.781V1.421L54.795.862v-12.5l-2.887-.559v-3.278h7.953l.242,2.887a7.341,7.341,0,0,1,2.486-2.4,6.626,6.626,0,0,1,3.38-.857,5.937,5.937,0,0,1,4.694,1.918q1.695,1.918,1.695,6.016V.862l2.608.559V4.68H64.573V1.421L66.9.862V-7.892a4.142,4.142,0,0,0-.8-2.878,3.129,3.129,0,0,0-2.384-.847,4.05,4.05,0,0,0-2.039.494,4.109,4.109,0,0,0-1.443,1.406V.862l2.2.559V4.68Zm31.29.391A6.811,6.811,0,0,1,78.709,3.46,5.637,5.637,0,0,1,76.94-.926,5.552,5.552,0,0,1,77.973-4.26a6.781,6.781,0,0,1,3.055-2.254,13.3,13.3,0,0,1,4.982-.82h2.663v-1.49a3.3,3.3,0,0,0-.847-2.356,3.324,3.324,0,0,0-2.542-.9,5.361,5.361,0,0,0-1.574.214,4.45,4.45,0,0,0-1.257.605L82.024-8.6H78.113l-.074-5.234a16.926,16.926,0,0,1,3.427-1.453,14.165,14.165,0,0,1,4.116-.559,9.711,9.711,0,0,1,6.239,1.835,6.327,6.327,0,0,1,2.291,5.243V-.46q0,.41.009.81a6.176,6.176,0,0,0,.065.773l2.1.3V4.68H89.549q-.2-.522-.41-1.118a6.976,6.976,0,0,1-.3-1.192A7.644,7.644,0,0,1,86.56,4.336,6.2,6.2,0,0,1,83.477,5.071ZM84.93,1.048A4.768,4.768,0,0,0,87.09.536a4,4,0,0,0,1.583-1.35V-4H85.991a3.962,3.962,0,0,0-2.71.82,2.551,2.551,0,0,0-.922,1.974,2.083,2.083,0,0,0,.68,1.667A2.8,2.8,0,0,0,84.93,1.048ZM98.023,4.68V1.421l2.626-.559v-12.5l-2.906-.559v-3.278H105.7l.224,2.663a6.77,6.77,0,0,1,2.431-2.244,6.99,6.99,0,0,1,3.38-.792,6.2,6.2,0,0,1,3.325.857,5.171,5.171,0,0,1,2.077,2.589,6.985,6.985,0,0,1,2.421-2.533,6.57,6.57,0,0,1,3.5-.913,5.843,5.843,0,0,1,4.7,2.03q1.723,2.03,1.723,6.184V.862l2.626.559V4.68H121.7V1.421l2.347-.559V-7.65a4.9,4.9,0,0,0-.736-3.1,2.643,2.643,0,0,0-2.133-.866,3.27,3.27,0,0,0-2.142.717,4.025,4.025,0,0,0-1.267,1.89V.862l2.2.559V4.68h-9.815V1.421l2.2-.559V-7.65a4.911,4.911,0,0,0-.736-3.073,2.647,2.647,0,0,0-2.17-.894,4.042,4.042,0,0,0-1.993.466,3.748,3.748,0,0,0-1.378,1.341V.862l2.347.559V4.68Zm45.371.391A9.742,9.742,0,0,1,138.346,3.8,8.752,8.752,0,0,1,135,.285a10.745,10.745,0,0,1-1.183-5.1v-.745a12.1,12.1,0,0,1,1.118-5.317,8.838,8.838,0,0,1,3.157-3.651,8.5,8.5,0,0,1,4.815-1.313,9.041,9.041,0,0,1,4.6,1.08,6.962,6.962,0,0,1,2.831,3.11,11.347,11.347,0,0,1,.969,4.917v2.961H139.464l-.037.112a6.052,6.052,0,0,0,.661,2.356,4.028,4.028,0,0,0,1.555,1.62,4.765,4.765,0,0,0,2.44.587,9.8,9.8,0,0,0,2.784-.382,10.7,10.7,0,0,0,2.524-1.127l1.471,3.353a10.466,10.466,0,0,1-3.138,1.667A13.085,13.085,0,0,1,143.394,5.071ZM139.5-7.37h6.724v-.484a6.125,6.125,0,0,0-.326-2.114,2.742,2.742,0,0,0-1.043-1.369A3.248,3.248,0,0,0,143-11.822a2.922,2.922,0,0,0-1.825.568A3.744,3.744,0,0,0,140.013-9.7a8.185,8.185,0,0,0-.568,2.235ZM161.572,5.071a6.879,6.879,0,0,1-4.125-1.239A7.771,7.771,0,0,1,154.811.368a13.658,13.658,0,0,1-.913-5.206v-.391a15.4,15.4,0,0,1,.922-5.569,8.413,8.413,0,0,1,2.635-3.716,6.478,6.478,0,0,1,4.1-1.332,6.117,6.117,0,0,1,2.906.661,6.514,6.514,0,0,1,2.161,1.872v-7.227l-2.906-.559v-3.278h8.344V.862l2.608.559V4.68h-7.32l-.41-2.459a6.614,6.614,0,0,1-2.263,2.123A6.308,6.308,0,0,1,161.572,5.071Zm1.62-4.228a3.981,3.981,0,0,0,1.993-.484,4.054,4.054,0,0,0,1.434-1.4V-9.587a4.172,4.172,0,0,0-1.415-1.5,3.671,3.671,0,0,0-1.974-.531,3.128,3.128,0,0,0-2.226.81,4.735,4.735,0,0,0-1.267,2.244,12.452,12.452,0,0,0-.4,3.334v.391a8.209,8.209,0,0,0,.894,4.163A3.165,3.165,0,0,0,163.192.843Z" transform="translate(-0.875 24.375)" fill="#1e1e1e"/>
</svg>
